# xmcd CD database file
#
# Track frame offsets:
#	150
#	24022
#	45887
#	66217
#	90435
#	116402
#	135385
#	155580
#	171200
#	185777
#
# Disc length: 2799 seconds
#
# Revision: 0
# Processed by: cddbd v1.5.1PL0 Copyright (c) Steve Scherf et al.
# Submitted via: CDex 1.51
#
DISCID=730aed0a
DTITLE=陣内大蔵 - モラトリアム
DYEAR=1988
DGENRE=JPop
TTITLE0=いと小さき君の為に
TTITLE1=Dadaism
TTITLE2=甘いベッド
TTITLE3=Prejudice
TTITLE4=Silent Moon
TTITLE5=モナリザの背中
TTITLE6=Reversible Man
TTITLE7=Tonight
TTITLE8=The End
TTITLE9=かなしくて
EXTD=YEAR: 1988
EXTT0=
EXTT1=
EXTT2=
EXTT3=
EXTT4=
EXTT5=
EXTT6=
EXTT7=
EXTT8=
EXTT9=
PLAYORDER=
